<svg width="1004" height="293" viewBox="0 0 1004 293" fill="none" xmlns="http://www.w3.org/2000/svg">
<g clip-path="url(#clip0_54_161)">
<rect x="11" y="9" width="275" height="275" rx="66" fill="#111111"/>
<g filter="url(#filter1_d_54_161)">
<path d="M177.702 80.0009V138.55C177.609 138.55 177.516 138.549 177.424 138.549C143.171 138.549 115.405 166.385 115.404 200.722C115.404 200.814 115.406 200.907 115.406 201H57.0018C57.0016 200.907 57 200.814 57 200.722C57 134.049 110.915 80.0002 177.424 80C177.516 80 177.609 80.0007 177.702 80.0009Z" fill="url(#paint0_linear_54_161)"/>
<path d="M177.702 138.548H240V201H177.702V138.548Z" fill="url(#paint1_linear_54_161)"/>
<path d="M239 139.548V200H178.702V139.548H239ZM176.702 137.553C142.467 137.938 114.791 165.686 114.408 200H58.0049C58.3908 134.451 111.32 81.3918 176.702 81.0039V137.553Z" stroke="url(#paint2_linear_54_161)" stroke-opacity="0.48" stroke-width="2"/>
</g>
</g>
<rect x="12" y="10" width="273" height="273" rx="65" stroke="url(#paint3_linear_54_161)" stroke-opacity="0.64" stroke-width="2"/>
<path d="M924.978 213.15C905.658 213.15 890.468 208.53 879.408 199.29C868.348 189.91 862.818 176.82 862.818 160.02C862.818 143.36 867.718 130.2 877.518 120.54C887.458 110.88 901.598 106.05 919.938 106.05C931.978 106.05 942.198 108.29 950.598 112.77C958.998 117.25 965.368 123.48 969.708 131.46C974.048 139.3 976.218 148.19 976.218 158.13V170.94H893.058C895.298 183.82 907.338 190.26 929.178 190.26C935.618 190.26 942.268 189.7 949.128 188.58C955.988 187.46 961.938 185.92 966.978 183.96V206.22C962.078 208.32 955.778 210 948.078 211.26C940.378 212.52 932.678 213.15 924.978 213.15ZM946.188 150.36C945.768 143.64 943.248 138.46 938.628 134.82C934.008 131.04 927.638 129.15 919.518 129.15C911.538 129.15 905.238 131.04 900.618 134.82C895.998 138.6 893.478 143.78 893.058 150.36H946.188Z" fill="white" fill-opacity="0.96"/>
<path d="M751.845 109.2H778.515L805.815 178.92L833.115 109.2H859.785L818.205 210H793.425L751.845 109.2Z" fill="white" fill-opacity="0.96"/>
<path d="M705.533 109.2H737.453V210H705.533V109.2Z" fill="white" fill-opacity="0.96"/>
<path d="M577.989 54.8096H609.699V151.83L646.449 109.2H683.199L640.569 158.34L688.449 210H651.699L609.699 164.64V210H577.989V54.8096Z" fill="white" fill-opacity="0.96"/>
<path d="M487.861 109.2H518.521V123.69C522.581 118.79 528.251 115.08 535.531 112.56C542.811 109.9 551.071 108.57 560.311 108.57V132.72C550.651 132.72 542.111 134.19 534.691 137.13C527.411 140.07 522.371 144.55 519.571 150.57V210H487.861V109.2Z" fill="white" fill-opacity="0.96"/>
<path d="M400.51 213.15C388.19 213.15 378.11 210.07 370.27 203.91C362.57 197.61 358.72 189.07 358.72 178.29C358.72 167.09 362.43 158.41 369.85 152.25C377.27 145.95 387.77 142.8 401.35 142.8C407.37 142.8 413.11 143.43 418.57 144.69C424.03 145.95 428.86 147.7 433.06 149.94V147.42C433.06 141.12 430.82 136.5 426.34 133.56C421.86 130.62 415 129.15 405.76 129.15C393.44 129.15 382.1 131.46 371.74 136.08V112.98C376.22 111.02 382.03 109.41 389.17 108.15C396.31 106.75 403.45 106.05 410.59 106.05C428.79 106.05 442.37 109.83 451.33 117.39C460.29 124.81 464.77 135.24 464.77 148.68V210H434.95V200.76C426.41 209.02 414.93 213.15 400.51 213.15ZM409.12 192.15C414.3 192.15 418.99 191.17 423.19 189.21C427.39 187.25 430.68 184.52 433.06 181.02V170.94C425.92 166.18 418.08 163.8 409.54 163.8C403.66 163.8 399.11 165.06 395.89 167.58C392.81 169.96 391.27 173.53 391.27 178.29C391.27 182.77 392.81 186.2 395.89 188.58C398.97 190.96 403.38 192.15 409.12 192.15Z" fill="white" fill-opacity="0.96"/>
<rect x="704" y="63" width="34" height="29" fill="#F5F5F5"/>
<defs>
<filter id="filter1_d_54_161" x="2.7" y="29.7" width="291.6" height="229.6" filterUnits="userSpaceOnUse" color-interpolation-filters="sRGB">
<feFlood flood-opacity="0" result="BackgroundImageFix"/>
<feColorMatrix in="SourceAlpha" type="matrix" values="0 0 0 0 0 0 0 0 0 0 0 0 0 0 0 0 0 0 127 0" result="hardAlpha"/>
<feOffset dy="4"/>
<feGaussianBlur stdDeviation="27.15"/>
<feComposite in2="hardAlpha" operator="out"/>
<feColorMatrix type="matrix" values="0 0 0 0 0 0 0 0 0 0 0 0 0 0 0 0 0 0 0.25 0"/>
<feBlend mode="normal" in2="BackgroundImageFix" result="effect1_dropShadow_54_161"/>
<feBlend mode="normal" in="SourceGraphic" in2="effect1_dropShadow_54_161" result="shape"/>
</filter>
<linearGradient id="paint0_linear_54_161" x1="148.5" y1="95.5" x2="148.5" y2="214.5" gradientUnits="userSpaceOnUse">
<stop stop-color="white"/>
<stop offset="1" stop-color="#6D6D6D"/>
</linearGradient>
<linearGradient id="paint1_linear_54_161" x1="148.5" y1="95.5" x2="148.5" y2="214.5" gradientUnits="userSpaceOnUse">
<stop stop-color="white"/>
<stop offset="1" stop-color="#6D6D6D"/>
</linearGradient>
<linearGradient id="paint2_linear_54_161" x1="123.631" y1="96.9542" x2="151.257" y2="214.44" gradientUnits="userSpaceOnUse">
<stop stop-color="white"/>
<stop offset="1" stop-color="white" stop-opacity="0"/>
</linearGradient>
<linearGradient id="paint3_linear_54_161" x1="54" y1="17" x2="272.5" y2="284" gradientUnits="userSpaceOnUse">
<stop stop-color="#666666"/>
<stop offset="0.405257"/>
<stop offset="1" stop-color="#666666"/>
</linearGradient>
<clipPath id="clip0_54_161">
<rect x="11" y="9" width="275" height="275" rx="66" fill="white"/>
</clipPath>
</defs>
</svg>
